<svg width="205" height="63" viewBox="0 0 205 63" fill="none" xmlns="http://www.w3.org/2000/svg">
<circle cx="4.47599" cy="58.39" r="4.47599" transform="rotate(-90 4.47599 58.39)" fill="#C4C4C4" fill-opacity="0.3"/>
<circle cx="4.47617" cy="22.5821" r="4.47599" transform="rotate(-90 4.47617 22.5821)" fill="#C4C4C4" fill-opacity="0.3"/>
<circle cx="4.47617" cy="40.4862" r="4.47599" transform="rotate(-90 4.47617 40.4862)" fill="#C4C4C4" fill-opacity="0.3"/>
<circle cx="4.47617" cy="4.67806" r="4.47599" transform="rotate(-90 4.47617 4.67806)" fill="#C4C4C4" fill-opacity="0.3"/>
<circle cx="58.1878" cy="58.39" r="4.47599" transform="rotate(-90 58.1878 58.39)" fill="#C4C4C4" fill-opacity="0.3"/>
<circle cx="58.1878" cy="22.5821" r="4.47599" transform="rotate(-90 58.1878 22.5821)" fill="#C4C4C4" fill-opacity="0.3"/>
<circle cx="58.1878" cy="40.4862" r="4.47599" transform="rotate(-90 58.1878 40.4862)" fill="#C4C4C4" fill-opacity="0.3"/>
<circle cx="58.1878" cy="4.67806" r="4.47599" transform="rotate(-90 58.1878 4.67806)" fill="#C4C4C4" fill-opacity="0.3"/>
<circle cx="22.3802" cy="58.39" r="4.47599" transform="rotate(-90 22.3802 58.39)" fill="#C4C4C4" fill-opacity="0.3"/>
<circle cx="22.3802" cy="22.5821" r="4.47599" transform="rotate(-90 22.3802 22.5821)" fill="#C4C4C4" fill-opacity="0.3"/>
<circle cx="22.3802" cy="40.4862" r="4.47599" transform="rotate(-90 22.3802 40.4862)" fill="#C4C4C4" fill-opacity="0.3"/>
<circle cx="22.3802" cy="4.67806" r="4.47599" transform="rotate(-90 22.3802 4.67806)" fill="#C4C4C4" fill-opacity="0.3"/>
<circle cx="76.0918" cy="58.39" r="4.47599" transform="rotate(-90 76.0918 58.39)" fill="#C4C4C4" fill-opacity="0.3"/>
<circle cx="76.0918" cy="22.5821" r="4.47599" transform="rotate(-90 76.0918 22.5821)" fill="#C4C4C4" fill-opacity="0.3"/>
<circle cx="76.0918" cy="40.4862" r="4.47599" transform="rotate(-90 76.0918 40.4862)" fill="#C4C4C4" fill-opacity="0.3"/>
<circle cx="76.0918" cy="4.67806" r="4.47599" transform="rotate(-90 76.0918 4.67806)" fill="#C4C4C4" fill-opacity="0.3"/>
<circle cx="40.2839" cy="58.39" r="4.47599" transform="rotate(-90 40.2839 58.39)" fill="#C4C4C4" fill-opacity="0.3"/>
<circle cx="40.2839" cy="22.5821" r="4.47599" transform="rotate(-90 40.2839 22.5821)" fill="#C4C4C4" fill-opacity="0.3"/>
<circle cx="40.2839" cy="40.4862" r="4.47599" transform="rotate(-90 40.2839 40.4862)" fill="#C4C4C4" fill-opacity="0.3"/>
<circle cx="40.2839" cy="4.67806" r="4.47599" transform="rotate(-90 40.2839 4.67806)" fill="#C4C4C4" fill-opacity="0.3"/>
<circle cx="93.9958" cy="58.39" r="4.47599" transform="rotate(-90 93.9958 58.39)" fill="#C4C4C4" fill-opacity="0.3"/>
<circle cx="93.9958" cy="22.5821" r="4.47599" transform="rotate(-90 93.9958 22.5821)" fill="#C4C4C4" fill-opacity="0.3"/>
<circle cx="93.9958" cy="40.4862" r="4.47599" transform="rotate(-90 93.9958 40.4862)" fill="#C4C4C4" fill-opacity="0.3"/>
<circle cx="93.9958" cy="4.67806" r="4.47599" transform="rotate(-90 93.9958 4.67806)" fill="#C4C4C4" fill-opacity="0.3"/>
<circle cx="111.004" cy="58.39" r="4.47599" transform="rotate(-90 111.004 58.39)" fill="#C4C4C4" fill-opacity="0.3"/>
<circle cx="111.004" cy="22.5821" r="4.47599" transform="rotate(-90 111.004 22.5821)" fill="#C4C4C4" fill-opacity="0.3"/>
<circle cx="111.004" cy="40.4862" r="4.47599" transform="rotate(-90 111.004 40.4862)" fill="#C4C4C4" fill-opacity="0.3"/>
<circle cx="111.004" cy="4.67806" r="4.47599" transform="rotate(-90 111.004 4.67806)" fill="#C4C4C4" fill-opacity="0.3"/>
<circle cx="164.716" cy="58.39" r="4.47599" transform="rotate(-90 164.716 58.39)" fill="#C4C4C4" fill-opacity="0.3"/>
<circle cx="164.716" cy="22.5821" r="4.47599" transform="rotate(-90 164.716 22.5821)" fill="#C4C4C4" fill-opacity="0.3"/>
<circle cx="164.716" cy="40.4862" r="4.47599" transform="rotate(-90 164.716 40.4862)" fill="#C4C4C4" fill-opacity="0.3"/>
<circle cx="164.716" cy="4.67806" r="4.47599" transform="rotate(-90 164.716 4.67806)" fill="#C4C4C4" fill-opacity="0.3"/>
<circle cx="128.909" cy="58.39" r="4.47599" transform="rotate(-90 128.909 58.39)" fill="#C4C4C4" fill-opacity="0.3"/>
<circle cx="128.909" cy="22.5821" r="4.47599" transform="rotate(-90 128.909 22.5821)" fill="#C4C4C4" fill-opacity="0.3"/>
<circle cx="128.909" cy="40.4862" r="4.47599" transform="rotate(-90 128.909 40.4862)" fill="#C4C4C4" fill-opacity="0.3"/>
<circle cx="128.909" cy="4.67806" r="4.47599" transform="rotate(-90 128.909 4.67806)" fill="#C4C4C4" fill-opacity="0.3"/>
<circle cx="182.62" cy="58.39" r="4.47599" transform="rotate(-90 182.62 58.39)" fill="#C4C4C4" fill-opacity="0.3"/>
<circle cx="182.62" cy="22.5821" r="4.47599" transform="rotate(-90 182.62 22.5821)" fill="#C4C4C4" fill-opacity="0.3"/>
<circle cx="182.62" cy="40.4862" r="4.47599" transform="rotate(-90 182.62 40.4862)" fill="#C4C4C4" fill-opacity="0.3"/>
<circle cx="182.62" cy="4.67806" r="4.47599" transform="rotate(-90 182.62 4.67806)" fill="#C4C4C4" fill-opacity="0.3"/>
<circle cx="146.813" cy="58.39" r="4.47599" transform="rotate(-90 146.813 58.39)" fill="#C4C4C4" fill-opacity="0.3"/>
<circle cx="146.813" cy="22.5821" r="4.47599" transform="rotate(-90 146.813 22.5821)" fill="#C4C4C4" fill-opacity="0.3"/>
<circle cx="146.813" cy="40.4862" r="4.47599" transform="rotate(-90 146.813 40.4862)" fill="#C4C4C4" fill-opacity="0.3"/>
<circle cx="146.813" cy="4.67806" r="4.47599" transform="rotate(-90 146.813 4.67806)" fill="#C4C4C4" fill-opacity="0.3"/>
<circle cx="200.524" cy="58.39" r="4.47599" transform="rotate(-90 200.524 58.39)" fill="#C4C4C4" fill-opacity="0.3"/>
<circle cx="200.524" cy="22.5821" r="4.47599" transform="rotate(-90 200.524 22.5821)" fill="#C4C4C4" fill-opacity="0.3"/>
<circle cx="200.524" cy="40.4862" r="4.47599" transform="rotate(-90 200.524 40.4862)" fill="#C4C4C4" fill-opacity="0.3"/>
<circle cx="200.524" cy="4.67806" r="4.47599" transform="rotate(-90 200.524 4.67806)" fill="#C4C4C4" fill-opacity="0.3"/>
</svg>
